<svg xmlns="http://www.w3.org/2000/svg" width="28" height="24.637" viewBox="0 0 28 24.637">
  <g id="Groupe_8" data-name="Groupe 8" transform="translate(-283.5 -288.555)">
    <g id="Groupe_7" data-name="Groupe 7">
      <path id="Icon_awesome-cocktail" data-name="Icon awesome-cocktail" d="M14.132,22.153H11.458V16.174l8.056-8.056a1.176,1.176,0,0,0-.832-2.008H1.178A1.176,1.176,0,0,0,.346,8.119L8.4,16.174v5.978H5.729a1.91,1.91,0,0,0-1.91,1.91.382.382,0,0,0,.382.382H15.66a.382.382,0,0,0,.382-.382A1.91,1.91,0,0,0,14.132,22.153ZM20.625,0a6.854,6.854,0,0,0-6.454,4.583h2.508a4.583,4.583,0,1,1,2.068,6.463l-1.683,1.683A6.865,6.865,0,1,0,20.625,0Z" transform="translate(283.5 288.555)" fill="#fff"/>
      <g id="Icon_feather-clock" data-name="Icon feather-clock" transform="translate(299.33 301.023)">
        <path id="Tracé_4" data-name="Tracé 4" d="M11.67,7.335A4.335,4.335,0,1,1,7.335,3,4.335,4.335,0,0,1,11.67,7.335Z" transform="translate(0 0)" fill="none" stroke="#fff" stroke-linecap="round" stroke-linejoin="round" stroke-width="1"/>
        <path id="Tracé_5" data-name="Tracé 5" d="M18,9v2.6l1.734.867" transform="translate(-10.665 -4.266)" fill="none" stroke="#fff" stroke-linecap="round" stroke-linejoin="round" stroke-width="1"/>
      </g>
    </g>
  </g>
</svg>
