<svg id="Calque_1" data-name="Calque 1" xmlns="http://www.w3.org/2000/svg" viewBox="0 0 129.91 129.68"><defs><style>.cls-1{fill:#f4c70e;}</style></defs><title>profilactive</title><g id="_8eYlJP" data-name="8eYlJP"><path class="cls-1" d="M219.71,453.73q-29,0-58,0c-6.29,0-7.39-1.31-6.39-7.47,3.43-21,14.38-36.87,32.7-47.73,2.72-1.61,4.67-1.86,7.56.12a42.84,42.84,0,0,0,48.79,0c2.91-2,4.87-1.67,7.57-.07q27.71,16.48,32.72,48.27c.85,5.49-.39,6.9-6,6.9Q249.19,453.76,219.71,453.73Z" transform="translate(-155.05 -324.06)"/><path class="cls-1" d="M258.19,362.51a38.18,38.18,0,1,1-38.32-38.46A38.23,38.23,0,0,1,258.19,362.51Z" transform="translate(-155.05 -324.06)"/></g></svg>