<svg xmlns="http://www.w3.org/2000/svg" width="24" height="22.405" viewBox="0 0 24 22.405">
  <g id="WEcWXx" transform="translate(-249.033 -346.106)">
    <g id="Groupe_4" data-name="Groupe 4" transform="translate(249.033 346.106)">
      <path id="Tracé_1" data-name="Tracé 1" d="M262.437,347.532c1.649.328,3.253.556,4.805.978a11.086,11.086,0,0,1,5.29,3.071,6,6,0,0,1,.634.771c.25.376.637.728.379,1.259-.275.566-.8.467-1.28.467-3.243,0-6.486,0-9.783,0v4.534h4.623c.553,0,.92.257.908.826-.012.532-.374.773-.894.774l-4.266,0c-.109,0-.219.011-.4.02v8.208h-1.607v-8.229h-4.681c-.548,0-.93-.238-.922-.812s.4-.792.945-.79c1.51,0,3.021,0,4.585,0v-4.535h-.686c-3.088,0-6.177.015-9.265-.019a.9.9,0,0,1-.817-1.562,10,10,0,0,1,5.66-3.869c1.648-.488,3.365-.745,5.151-1.127.108-.441-.225-1.41.826-1.4C262.638,346.119,262.37,347.022,262.437,347.532Zm8.657,4.927c-4.728-4.6-15.654-3.814-18.81,0Z" transform="translate(-249.63 -346.106)" fill="#fff"/>
      <path id="Tracé_2" data-name="Tracé 2" d="M255.648,437.761l1.35,3.356c-1.073.13-1.073.13-1.447-.781-.3-.738-.581-1.488-.928-2.205a.972.972,0,0,0-.611-.413,1.754,1.754,0,0,0-2.366,1.463c-.1.4-.39.752-.51,1.151-.227.758-.688,1.019-1.526.767l1.527-3.34c-1.173-.141-1.209-.155-1.374-1.326-.253-1.8-.48-3.606-.716-5.409-.07-.537.11-.956.677-1.032s.843.277.913.821c.121.945.254,1.889.389,2.893H255.1a1.81,1.81,0,0,1,.594.015,2.3,2.3,0,0,1,.523.381c-.169.135-.325.361-.508.385a5.84,5.84,0,0,1-1.329.01.722.722,0,0,0-.877.571c-.1.331-.269.642-.438,1.037,1,0,1.906,0,2.812,0,.768,0,1.172.267,1.142.795-.037.662-.489.831-1.068.809A1.722,1.722,0,0,0,255.648,437.761Zm-4.308-1.721c.6.057.971-.451,1.114-1.481H251.18a3.824,3.824,0,0,0,0,.449C251.228,435.355,251.288,435.7,251.341,436.04Z" transform="translate(-249.033 -418.796)" fill="#fff"/>
      <path id="Tracé_3" data-name="Tracé 3" d="M369.125,441.052l1.353-3.376-.567-.045a.8.8,0,1,1,.06-1.6c1-.007,1.993,0,3.088,0-.225-.513-.394-.966-.627-1.384a.666.666,0,0,0-.485-.205c-.487-.027-.981.029-1.462-.028-.205-.024-.387-.247-.58-.38.193-.134.383-.379.578-.383,1.507-.032,3.016-.018,4.6-.018.132-.953.26-1.887.393-2.821.091-.643.423-.969.911-.907s.758.476.676,1.1c-.236,1.8-.468,3.607-.721,5.408-.156,1.106-.212,1.142-1.363,1.264l1.524,3.327c-1.055.219-1.056.22-1.476-.681-.337-.723-.687-1.441-1-2.176a.73.73,0,0,0-.784-.53c-1.586.012-1.586-.007-2.188,1.468-.159.39-.325.777-.483,1.167C370.208,441.166,370.209,441.166,369.125,441.052Zm4.5-6.581c.333,1.3.554,1.583,1.175,1.465l.181-1.465Z" transform="translate(-353.093 -418.725)" fill="#fff"/>
    </g>
  </g>
</svg>
